<svg width="1280" height="900" viewBox="0 0 1280 900" xmlns="http://www.w3.org/2000/svg"><rect x="0" y="0" width="1280" height="900" fill="#F7F5EF"/><rect x="0" y="0" width="1280" height="604" rx="8" fill="#F7F5EF"/><rect x="0" y="0" width="220" height="900" rx="0" fill="#1B2A4A"/><circle cx="34" cy="40" r="8" fill="#B8863C" stroke="#B8863C" stroke-width="1.5"/><text x="52" y="45" font-family="Space Grotesk" font-size="15" font-weight="700" fill="#FFFFFF" text-anchor="start">Gyanahut Edu</text><text x="26" y="74" font-family="IBM Plex Sans" font-size="10.5" font-weight="400" fill="rgba(255,255,255,0.55)" text-anchor="start">Target: SSC CGL, Banking PO</text><rect x="0" y="92" width="220" height="32" rx="0" fill="rgba(184,134,60,0.15)"/><text x="26" y="110" font-family="IBM Plex Sans" font-size="13" font-weight="600" fill="#B8863C" text-anchor="start">Overview</text><text x="26" y="148" font-family="IBM Plex Sans" font-size="13" font-weight="400" fill="rgba(255,255,255,0.85)" text-anchor="start">Infinite test</text><text x="26" y="186" font-family="IBM Plex Sans" font-size="13" font-weight="400" fill="rgba(255,255,255,0.85)" text-anchor="start">Live tests</text><text x="26" y="224" font-family="IBM Plex Sans" font-size="13" font-weight="400" fill="rgba(255,255,255,0.85)" text-anchor="start">Upcoming tests</text><text x="26" y="262" font-family="IBM Plex Sans" font-size="13" font-weight="400" fill="rgba(255,255,255,0.85)" text-anchor="start">Exam history</text><text x="26" y="300" font-family="IBM Plex Sans" font-size="13" font-weight="400" fill="rgba(255,255,255,0.85)" text-anchor="start">Bookmarks</text><text x="26" y="346" font-family="IBM Plex Sans" font-size="10" font-weight="600" fill="rgba(255,255,255,0.4)" text-anchor="start" letter-spacing="0.05em">ANALYSIS</text><text x="26" y="372" font-family="IBM Plex Sans" font-size="13" font-weight="400" fill="rgba(255,255,255,0.85)" text-anchor="start">Wrong questions</text><text x="26" y="410" font-family="IBM Plex Sans" font-size="13" font-weight="400" fill="rgba(255,255,255,0.85)" text-anchor="start">Difficult questions</text><text x="26" y="448" font-family="IBM Plex Sans" font-size="13" font-weight="400" fill="rgba(255,255,255,0.85)" text-anchor="start">Ranking</text><line x1="26" y1="800" x2="194" y2="800" stroke="rgba(255,255,255,0.15)" stroke-width="1"/><text x="26" y="826" font-family="IBM Plex Sans" font-size="13" font-weight="400" fill="rgba(255,255,255,0.85)" text-anchor="start">Profile</text><text x="26" y="858" font-family="IBM Plex Sans" font-size="13" font-weight="400" fill="rgba(255,255,255,0.6)" text-anchor="start">Logout</text><rect x="220" y="0" width="1060" height="64" rx="0" fill="#FFFFFF" stroke="#DAD4C2" stroke-width="1"/><text x="252" y="37.0" font-family="Space Grotesk" font-size="17" font-weight="600" fill="#1B2A4A" text-anchor="start">Profile</text><circle cx="1192" cy="32.0" r="15" fill="none" stroke="#DAD4C2" stroke-width="1"/><circle cx="1236" cy="32.0" r="15" fill="#F3E7D2"/><text x="1236" y="36.0" font-family="IBM Plex Sans" font-size="12" font-weight="600" fill="#8C6526" text-anchor="middle">A</text><circle cx="282" cy="122" r="30" fill="#F3E7D2"/><text x="282" y="128" font-family="Space Grotesk" font-size="15" font-weight="600" fill="#8C6526" text-anchor="middle">AS</text><rect x="328" y="102" width="111.48" height="22" rx="5" fill="#E4EFE7"/><text x="383.74" y="117" font-family="IBM Plex Mono" font-size="11" font-weight="500" fill="#2F6F4E" text-anchor="middle">Email verified</text><rect x="449.48" y="102" width="125.12" height="22" rx="5" fill="#FAEEDA"/><text x="512.04" y="117" font-family="IBM Plex Mono" font-size="11" font-weight="500" fill="#854F0B" text-anchor="middle">Phone unverified</text><text x="252" y="172" font-family="Space Grotesk" font-size="14" font-weight="600" fill="#1B2A4A" text-anchor="start">Personal details</text><rect x="252" y="192" width="321.3333333333333" height="36" rx="6" fill="#FFFFFF" stroke="#DAD4C2" stroke-width="1"/><text x="264" y="215" font-family="IBM Plex Sans" font-size="11.5" font-weight="400" fill="#9A9587" text-anchor="start">First name</text><rect x="589.3333333333333" y="192" width="321.3333333333333" height="36" rx="6" fill="#FFFFFF" stroke="#DAD4C2" stroke-width="1"/><text x="601.3333333333333" y="215" font-family="IBM Plex Sans" font-size="11.5" font-weight="400" fill="#9A9587" text-anchor="start">Last name</text><rect x="926.6666666666665" y="192" width="321.3333333333333" height="36" rx="6" fill="#FFFFFF" stroke="#DAD4C2" stroke-width="1"/><text x="938.6666666666665" y="215" font-family="IBM Plex Sans" font-size="11.5" font-weight="400" fill="#9A9587" text-anchor="start">Phone</text><rect x="252" y="242" width="321.3333333333333" height="36" rx="6" fill="#FFFFFF" stroke="#DAD4C2" stroke-width="1"/><text x="264" y="265" font-family="IBM Plex Sans" font-size="11.5" font-weight="400" fill="#9A9587" text-anchor="start">Date of birth</text><rect x="589.3333333333333" y="242" width="321.3333333333333" height="36" rx="6" fill="#FFFFFF" stroke="#DAD4C2" stroke-width="1"/><text x="601.3333333333333" y="265" font-family="IBM Plex Sans" font-size="11.5" font-weight="400" fill="#9A9587" text-anchor="start">Gender</text><rect x="926.6666666666665" y="242" width="321.3333333333333" height="36" rx="6" fill="#FFFFFF" stroke="#DAD4C2" stroke-width="1"/><text x="938.6666666666665" y="265" font-family="IBM Plex Sans" font-size="11.5" font-weight="400" fill="#9A9587" text-anchor="start">Education</text><rect x="252" y="292" width="321.3333333333333" height="36" rx="6" fill="#FFFFFF" stroke="#DAD4C2" stroke-width="1"/><text x="264" y="315" font-family="IBM Plex Sans" font-size="11.5" font-weight="400" fill="#9A9587" text-anchor="start">State</text><rect x="589.3333333333333" y="292" width="321.3333333333333" height="36" rx="6" fill="#FFFFFF" stroke="#DAD4C2" stroke-width="1"/><text x="601.3333333333333" y="315" font-family="IBM Plex Sans" font-size="11.5" font-weight="400" fill="#9A9587" text-anchor="start">City</text><rect x="926.6666666666665" y="292" width="321.3333333333333" height="36" rx="6" fill="#FFFFFF" stroke="#DAD4C2" stroke-width="1"/><text x="938.6666666666665" y="315" font-family="IBM Plex Sans" font-size="11.5" font-weight="400" fill="#9A9587" text-anchor="start">Target exam(s)</text><rect x="252" y="346" width="140" height="38" rx="6" fill="#B8863C"/><text x="322.0" y="369.375" font-family="IBM Plex Sans" font-size="12.5" font-weight="600" fill="#241a08" text-anchor="middle">Save changes</text><line x1="252" y1="424" x2="1248" y2="424" stroke="#DAD4C2" stroke-width="1"/><text x="252" y="454" font-family="Space Grotesk" font-size="14" font-weight="600" fill="#1B2A4A" text-anchor="start">Change password</text><rect x="252" y="474" width="321.3333333333333" height="36" rx="6" fill="#FFFFFF" stroke="#DAD4C2" stroke-width="1"/><text x="264" y="497" font-family="IBM Plex Sans" font-size="11.5" font-weight="400" fill="#9A9587" text-anchor="start">Current password</text><rect x="589.3333333333333" y="474" width="321.3333333333333" height="36" rx="6" fill="#FFFFFF" stroke="#DAD4C2" stroke-width="1"/><text x="601.3333333333333" y="497" font-family="IBM Plex Sans" font-size="11.5" font-weight="400" fill="#9A9587" text-anchor="start">New password</text><rect x="926.6666666666665" y="474" width="321.3333333333333" height="36" rx="6" fill="#FFFFFF" stroke="#DAD4C2" stroke-width="1"/><text x="938.6666666666665" y="497" font-family="IBM Plex Sans" font-size="11.5" font-weight="400" fill="#9A9587" text-anchor="start">Confirm new password</text><rect x="252" y="524" width="150" height="38" rx="6" fill="#B8863C"/><text x="327.0" y="547.375" font-family="IBM Plex Sans" font-size="12.5" font-weight="600" fill="#241a08" text-anchor="middle">Update password</text></svg>