<svg width="1280" height="900" viewBox="0 0 1280 900" xmlns="http://www.w3.org/2000/svg"><rect x="0" y="0" width="1280" height="900" fill="#F7F5EF"/><rect x="0" y="0" width="1280" height="900" rx="8" fill="#F7F5EF"/><rect x="0" y="0" width="220" height="900" rx="0" fill="#1B2A4A"/><circle cx="34" cy="40" r="8" fill="#B8863C" stroke="#B8863C" stroke-width="1.5"/><text x="52" y="45" font-family="Space Grotesk" font-size="15" font-weight="700" fill="#FFFFFF" text-anchor="start">Gyanahut Edu</text><text x="26" y="74" font-family="IBM Plex Sans" font-size="10.5" font-weight="400" fill="rgba(255,255,255,0.55)" text-anchor="start">Target: SSC CGL, Banking PO</text><text x="26" y="110" font-family="IBM Plex Sans" font-size="13" font-weight="400" fill="rgba(255,255,255,0.85)" text-anchor="start">Overview</text><text x="26" y="148" font-family="IBM Plex Sans" font-size="13" font-weight="400" fill="rgba(255,255,255,0.85)" text-anchor="start">Infinite test</text><text x="26" y="186" font-family="IBM Plex Sans" font-size="13" font-weight="400" fill="rgba(255,255,255,0.85)" text-anchor="start">Live tests</text><text x="26" y="224" font-family="IBM Plex Sans" font-size="13" font-weight="400" fill="rgba(255,255,255,0.85)" text-anchor="start">Upcoming tests</text><text x="26" y="262" font-family="IBM Plex Sans" font-size="13" font-weight="400" fill="rgba(255,255,255,0.85)" text-anchor="start">Exam history</text><text x="26" y="300" font-family="IBM Plex Sans" font-size="13" font-weight="400" fill="rgba(255,255,255,0.85)" text-anchor="start">Bookmarks</text><text x="26" y="346" font-family="IBM Plex Sans" font-size="10" font-weight="600" fill="rgba(255,255,255,0.4)" text-anchor="start" letter-spacing="0.05em">ANALYSIS</text><text x="26" y="372" font-family="IBM Plex Sans" font-size="13" font-weight="400" fill="rgba(255,255,255,0.85)" text-anchor="start">Wrong questions</text><text x="26" y="410" font-family="IBM Plex Sans" font-size="13" font-weight="400" fill="rgba(255,255,255,0.85)" text-anchor="start">Difficult questions</text><rect x="0" y="430" width="220" height="32" rx="0" fill="rgba(184,134,60,0.15)"/><text x="26" y="448" font-family="IBM Plex Sans" font-size="13" font-weight="600" fill="#B8863C" text-anchor="start">Ranking</text><line x1="26" y1="800" x2="194" y2="800" stroke="rgba(255,255,255,0.15)" stroke-width="1"/><text x="26" y="826" font-family="IBM Plex Sans" font-size="13" font-weight="400" fill="rgba(255,255,255,0.85)" text-anchor="start">Profile</text><text x="26" y="858" font-family="IBM Plex Sans" font-size="13" font-weight="400" fill="rgba(255,255,255,0.6)" text-anchor="start">Logout</text><rect x="220" y="0" width="1060" height="64" rx="0" fill="#FFFFFF" stroke="#DAD4C2" stroke-width="1"/><text x="252" y="37.0" font-family="Space Grotesk" font-size="17" font-weight="600" fill="#1B2A4A" text-anchor="start">Ranking</text><circle cx="1192" cy="32.0" r="15" fill="none" stroke="#DAD4C2" stroke-width="1"/><circle cx="1236" cy="32.0" r="15" fill="#F3E7D2"/><text x="1236" y="36.0" font-family="IBM Plex Sans" font-size="12" font-weight="600" fill="#8C6526" text-anchor="middle">A</text><rect x="252" y="90" width="996" height="130" rx="16" fill="#1B2A4A"/><g transform="translate(312,155.0) scale(1.3)"><path d="M-16 -18 h32 v10 a16 16 0 0 1 -32 0 z" fill="#FBBF24"/><rect x="-5" y="-2" width="10" height="14" fill="#FBBF24"/><rect x="-14" y="12" width="28" height="6" rx="2" fill="#8C6526"/><path d="M-16 -14 c-10 0 -10 16 0 16" fill="none" stroke="#FBBF24" stroke-width="3"/><path d="M16 -14 c10 0 10 16 0 16" fill="none" stroke="#FBBF24" stroke-width="3"/></g><rect x="372" y="110" width="118.30000000000001" height="22" rx="5" fill="rgba(184,134,60,0.22)"/><text x="431.15" y="125" font-family="IBM Plex Mono" font-size="11" font-weight="500" fill="#E8CB98" text-anchor="middle">NATIONAL LEAGUE</text><text x="372" y="152" font-family="IBM Plex Sans" font-size="13" font-weight="400" fill="rgba(255,255,255,0.65)" text-anchor="start">You're ranked</text><text x="372" y="182" font-family="Space Grotesk" font-size="30" font-weight="700" fill="#FFFFFF" text-anchor="start">#312</text><text x="472" y="182" font-family="IBM Plex Sans" font-size="13" font-weight="400" fill="rgba(255,255,255,0.65)" text-anchor="start">of 4,200 aspirants</text><text x="1228" y="130" font-family="Space Grotesk" font-size="20" font-weight="700" fill="#B8863C" text-anchor="end">Top 8%</text><text x="1228" y="150" font-family="IBM Plex Sans" font-size="11.5" font-weight="400" fill="rgba(255,255,255,0.6)" text-anchor="end">this month</text><rect x="1098" y="168" width="130" height="34" rx="6" fill="none" stroke="rgba(255,255,255,0.5)" stroke-width="1.4"/><text x="1163.0" y="189.025" font-family="IBM Plex Sans" font-size="11.5" font-weight="600" fill="#FFFFFF" text-anchor="middle">View history</text><rect x="252" y="244" width="220" height="34" rx="17" fill="#FFFFFF" stroke="#DAD4C2" stroke-width="1"/><text x="266" y="266" font-family="IBM Plex Sans" font-size="12" font-weight="400" fill="#1B2A4A" text-anchor="start">National (all exams)</text><rect x="484" y="244" width="140" height="34" rx="17" fill="#FFFFFF" stroke="#DAD4C2" stroke-width="1"/><text x="498" y="266" font-family="IBM Plex Sans" font-size="12" font-weight="400" fill="#1B2A4A" text-anchor="start">All time</text><rect x="252" y="300" width="996" height="330" rx="12" fill="#FFFFFF" stroke="#DAD4C2" stroke-width="1"/><rect x="260" y="310" width="980" height="56" rx="12" fill="#FBE3DE"/><circle cx="286" cy="338.0" r="15" fill="#FBBF24"/><text x="286" y="343.0" font-family="Space Grotesk" font-size="13" font-weight="700" fill="#241a08" text-anchor="middle">1</text><circle cx="330" cy="338.0" r="20" fill="#FBBF24"/><circle cx="330" cy="338.0" r="16" fill="#F3E7D2"/><text x="330" y="343.0" font-family="Space Grotesk" font-size="13" font-weight="700" fill="#8C6526" text-anchor="middle">R</text><text x="358" y="335.0" font-family="IBM Plex Sans" font-size="13.5" font-weight="600" fill="#1B2A4A" text-anchor="start">Rahul S.</text><text x="358" y="353.0" font-family="IBM Plex Sans" font-size="11" font-weight="400" fill="#5B6B85" text-anchor="start">Accuracy 88%</text><text x="842.0" y="343.0" font-family="IBM Plex Mono" font-size="15" font-weight="700" fill="#1B2A4A" text-anchor="middle">980</text><text x="1218" y="343.0" font-family="IBM Plex Sans" font-size="12" font-weight="600" fill="#2F6F4E" text-anchor="end">+42</text><rect x="260" y="372" width="980" height="56" rx="12" fill="#FFF0EE"/><circle cx="286" cy="400.0" r="15" fill="#C0C0C0"/><text x="286" y="405.0" font-family="Space Grotesk" font-size="13" font-weight="700" fill="#241a08" text-anchor="middle">2</text><circle cx="330" cy="400.0" r="20" fill="#C0C0C0"/><circle cx="330" cy="400.0" r="16" fill="#F3E7D2"/><text x="330" y="405.0" font-family="Space Grotesk" font-size="13" font-weight="700" fill="#8C6526" text-anchor="middle">P</text><text x="358" y="397.0" font-family="IBM Plex Sans" font-size="13.5" font-weight="600" fill="#1B2A4A" text-anchor="start">Priya M.</text><text x="358" y="415.0" font-family="IBM Plex Sans" font-size="11" font-weight="400" fill="#5B6B85" text-anchor="start">Accuracy 85%</text><text x="842.0" y="405.0" font-family="IBM Plex Mono" font-size="15" font-weight="700" fill="#1B2A4A" text-anchor="middle">945</text><text x="1218" y="405.0" font-family="IBM Plex Sans" font-size="12" font-weight="600" fill="#2F6F4E" text-anchor="end">+18</text><rect x="260" y="434" width="980" height="56" rx="12" fill="#FFF0EE"/><circle cx="286" cy="462.0" r="15" fill="#CD7F32"/><text x="286" y="467.0" font-family="Space Grotesk" font-size="13" font-weight="700" fill="#241a08" text-anchor="middle">3</text><circle cx="330" cy="462.0" r="20" fill="#CD7F32"/><circle cx="330" cy="462.0" r="16" fill="#F3E7D2"/><text x="330" y="467.0" font-family="Space Grotesk" font-size="13" font-weight="700" fill="#8C6526" text-anchor="middle">A</text><text x="358" y="459.0" font-family="IBM Plex Sans" font-size="13.5" font-weight="600" fill="#1B2A4A" text-anchor="start">Aman K.</text><text x="358" y="477.0" font-family="IBM Plex Sans" font-size="11" font-weight="400" fill="#5B6B85" text-anchor="start">Accuracy 81%</text><text x="842.0" y="467.0" font-family="IBM Plex Mono" font-size="15" font-weight="700" fill="#1B2A4A" text-anchor="middle">910</text><text x="1218" y="467.0" font-family="IBM Plex Sans" font-size="12" font-weight="600" fill="#B23A2E" text-anchor="end">-6</text><circle cx="286" cy="524.0" r="15" fill="none" stroke="#DAD4C2" stroke-width="1.4"/><text x="286" y="529.0" font-family="IBM Plex Sans" font-size="12" font-weight="600" fill="#5B6B85" text-anchor="middle">4</text><circle cx="330" cy="524.0" r="16" fill="#F3E7D2"/><text x="330" y="529.0" font-family="Space Grotesk" font-size="13" font-weight="700" fill="#8C6526" text-anchor="middle">S</text><text x="358" y="521.0" font-family="IBM Plex Sans" font-size="13.5" font-weight="600" fill="#1B2A4A" text-anchor="start">Sanya T.</text><text x="358" y="539.0" font-family="IBM Plex Sans" font-size="11" font-weight="400" fill="#5B6B85" text-anchor="start">Accuracy 79%</text><text x="842.0" y="529.0" font-family="IBM Plex Mono" font-size="15" font-weight="700" fill="#1B2A4A" text-anchor="middle">884</text><text x="1218" y="529.0" font-family="IBM Plex Sans" font-size="12" font-weight="600" fill="#2F6F4E" text-anchor="end">+11</text><circle cx="286" cy="586.0" r="15" fill="none" stroke="#DAD4C2" stroke-width="1.4"/><text x="286" y="591.0" font-family="IBM Plex Sans" font-size="12" font-weight="600" fill="#5B6B85" text-anchor="middle">5</text><circle cx="330" cy="586.0" r="16" fill="#F3E7D2"/><text x="330" y="591.0" font-family="Space Grotesk" font-size="13" font-weight="700" fill="#8C6526" text-anchor="middle">K</text><text x="358" y="583.0" font-family="IBM Plex Sans" font-size="13.5" font-weight="600" fill="#1B2A4A" text-anchor="start">Karan V.</text><text x="358" y="601.0" font-family="IBM Plex Sans" font-size="11" font-weight="400" fill="#5B6B85" text-anchor="start">Accuracy 77%</text><text x="842.0" y="591.0" font-family="IBM Plex Mono" font-size="15" font-weight="700" fill="#1B2A4A" text-anchor="middle">861</text><text x="1218" y="591.0" font-family="IBM Plex Sans" font-size="12" font-weight="600" fill="#B23A2E" text-anchor="end">-3</text><rect x="252" y="650" width="996" height="66" rx="14" fill="#F3E7D2" stroke="#B8863C" stroke-width="1.4"/><circle cx="286" cy="683" r="15" fill="none" stroke="#DAD4C2" stroke-width="1.4"/><text x="286" y="688" font-family="IBM Plex Sans" font-size="12" font-weight="600" fill="#5B6B85" text-anchor="middle">312</text><circle cx="344" cy="683" r="16" fill="#F3E7D2"/><text x="344" y="688" font-family="Space Grotesk" font-size="13" font-weight="700" fill="#8C6526" text-anchor="middle">Y</text><text x="372" y="678" font-family="IBM Plex Sans" font-size="13.5" font-weight="700" fill="#1B2A4A" text-anchor="start">You</text><text x="372" y="696" font-family="IBM Plex Sans" font-size="11" font-weight="400" fill="#8C6526" text-anchor="start">Accuracy 64%</text><text x="842.0" y="688" font-family="IBM Plex Mono" font-size="15" font-weight="700" fill="#1B2A4A" text-anchor="middle">620</text><text x="1218" y="688" font-family="IBM Plex Sans" font-size="12" font-weight="600" fill="#2F6F4E" text-anchor="end">+7</text></svg>