<svg width="1280" height="900" viewBox="0 0 1280 900" xmlns="http://www.w3.org/2000/svg"><rect x="0" y="0" width="1280" height="900" fill="#F7F5EF"/><rect x="190.0" y="125.0" width="900" height="650" rx="14" fill="none" stroke="#DAD4C2" stroke-width="1"/><rect x="190.0" y="125.0" width="396.0" height="650" rx="14" fill="#1B2A4A"/><rect x="388.0" y="125.0" width="198.0" height="650" rx="0" fill="#1B2A4A"/><circle cx="238.0" cy="171.0" r="8" fill="#B8863C" stroke="#B8863C" stroke-width="1.5"/><text x="256.0" y="176.0" font-family="Space Grotesk" font-size="16" font-weight="700" fill="#FFFFFF" text-anchor="start">Gyanahut Edu</text><text x="230.0" y="225.0" font-family="Space Grotesk" font-size="20" font-weight="600" fill="#FFFFFF" text-anchor="start">Master your exams</text><text x="230.0" y="253.0" font-family="IBM Plex Sans" font-size="12.5" font-weight="400" fill="rgba(255,255,255,0.6)" text-anchor="start">Create your account and get your first</text><text x="230.0" y="271.0" font-family="IBM Plex Sans" font-size="12.5" font-weight="400" fill="rgba(255,255,255,0.6)" text-anchor="start">practice set in under two minutes.</text><line x1="230.0" y1="293.0" x2="546.0" y2="293.0" stroke="rgba(255,255,255,0.15)" stroke-width="1"/><circle cx="241.0" cy="315.0" r="11" fill="none" stroke="#B8863C" stroke-width="1.6"/><text x="262.0" y="319.0" font-family="IBM Plex Sans" font-size="12.5" font-weight="400" fill="#FFFFFF" text-anchor="start">Live tests with real-time ranking</text><line x1="230.0" y1="335.0" x2="546.0" y2="335.0" stroke="rgba(255,255,255,0.15)" stroke-width="1"/><circle cx="241.0" cy="357.0" r="11" fill="none" stroke="#B8863C" stroke-width="1.6"/><text x="262.0" y="361.0" font-family="IBM Plex Sans" font-size="12.5" font-weight="400" fill="#FFFFFF" text-anchor="start">10,000+ question bank</text><line x1="230.0" y1="377.0" x2="546.0" y2="377.0" stroke="rgba(255,255,255,0.15)" stroke-width="1"/><circle cx="241.0" cy="399.0" r="11" fill="none" stroke="#B8863C" stroke-width="1.6"/><text x="262.0" y="403.0" font-family="IBM Plex Sans" font-size="12.5" font-weight="400" fill="#FFFFFF" text-anchor="start">Performance analytics after every attempt</text><rect x="230.0" y="725.0" width="104.66" height="22" rx="5" fill="rgba(184,134,60,0.22)"/><text x="282.33" y="740.0" font-family="IBM Plex Mono" font-size="11" font-weight="500" fill="#E8CB98" text-anchor="middle">NTA compliant</text><rect x="344.65999999999997" y="725.0" width="138.76" height="22" rx="5" fill="rgba(184,134,60,0.22)"/><text x="414.03999999999996" y="740.0" font-family="IBM Plex Mono" font-size="11" font-weight="500" fill="#E8CB98" text-anchor="middle">Secure environment</text><rect x="630.0" y="171.0" width="90" height="24" rx="14" fill="#1B2A4A"/><text x="675.0" y="187.0" font-family="IBM Plex Mono" font-size="11" font-weight="500" fill="#FFFFFF" text-anchor="middle">1. Details</text><rect x="730.0" y="171.0" width="76" height="24" rx="14" fill="none" stroke="#DAD4C2" stroke-width="1"/><text x="768.0" y="187.0" font-family="IBM Plex Mono" font-size="11" font-weight="400" fill="#5B6B85" text-anchor="middle">2. OTP</text><text x="630.0" y="217.0" font-family="Space Grotesk" font-size="20" font-weight="600" fill="#1B2A4A" text-anchor="start">Create an account</text><text x="630.0" y="239.0" font-family="IBM Plex Sans" font-size="12.5" font-weight="400" fill="#5B6B85" text-anchor="start">Tell us who you are and which exams you're targeting.</text><text x="630.0" y="263.0" font-family="IBM Plex Sans" font-size="12" font-weight="500" fill="#2E3E63" text-anchor="start">Full name</text><rect x="630.0" y="275.0" width="416.0" height="38" rx="6" fill="#FFFFFF" stroke="#DAD4C2" stroke-width="1"/><text x="644.0" y="298.0" font-family="IBM Plex Sans" font-size="13" font-weight="400" fill="#9A9587" text-anchor="start">Aditi Sharma</text><text x="630.0" y="329.0" font-family="IBM Plex Sans" font-size="12" font-weight="500" fill="#2E3E63" text-anchor="start">Email</text><rect x="630.0" y="341.0" width="416.0" height="38" rx="6" fill="#FFFFFF" stroke="#DAD4C2" stroke-width="1"/><text x="644.0" y="364.0" font-family="IBM Plex Sans" font-size="13" font-weight="400" fill="#9A9587" text-anchor="start">aditi@example.com</text><text x="630.0" y="395.0" font-family="IBM Plex Sans" font-size="12" font-weight="500" fill="#2E3E63" text-anchor="start">Phone</text><rect x="630.0" y="407.0" width="416.0" height="38" rx="6" fill="#FFFFFF" stroke="#DAD4C2" stroke-width="1"/><text x="644.0" y="430.0" font-family="IBM Plex Sans" font-size="13" font-weight="400" fill="#9A9587" text-anchor="start">98xxxxxxxx</text><text x="630.0" y="461.0" font-family="IBM Plex Sans" font-size="12" font-weight="500" fill="#2E3E63" text-anchor="start">Target exam(s)</text><rect x="630.0" y="473.0" width="416.0" height="38" rx="6" fill="#FFFFFF" stroke="#DAD4C2" stroke-width="1"/><text x="644.0" y="496.0" font-family="IBM Plex Sans" font-size="13" font-weight="400" fill="#9A9587" text-anchor="start">SSC CGL, Banking PO...</text><text x="630.0" y="527.0" font-family="IBM Plex Sans" font-size="12" font-weight="500" fill="#2E3E63" text-anchor="start">Password</text><rect x="630.0" y="539.0" width="416.0" height="38" rx="6" fill="#FFFFFF" stroke="#DAD4C2" stroke-width="1"/><text x="644.0" y="562.0" font-family="IBM Plex Sans" font-size="13" font-weight="400" fill="#9A9587" text-anchor="start">••••••••</text><rect x="630.0" y="593.0" width="416.0" height="44" rx="6" fill="#B8863C"/><text x="838.0" y="619.9" font-family="IBM Plex Sans" font-size="14" font-weight="600" fill="#241a08" text-anchor="middle">Send OTP</text></svg>