<svg width="360" height="480" viewBox="0 0 360 480" xmlns="http://www.w3.org/2000/svg"><rect x="0" y="0" width="360" height="480" rx="0" fill="#FFF8F3"/><defs>
<linearGradient id="heroGrad" x1="0%" y1="0%" x2="100%" y2="100%">
<stop offset="0%" stop-color="#FFC876"/>
<stop offset="100%" stop-color="#F0A337"/>
</linearGradient>
<linearGradient id="heroGradCool" x1="0%" y1="0%" x2="100%" y2="100%">
<stop offset="0%" stop-color="#C9DCC3"/>
<stop offset="100%" stop-color="#8FB584"/>
</linearGradient>
<filter id="softBlur"><feGaussianBlur stdDeviation="14"/></filter>
</defs><defs>
<filter id="elev1" x="-20%" y="-20%" width="140%" height="160%">
<feDropShadow dx="0" dy="1" stdDeviation="2" flood-color="#000000" flood-opacity="0.16"/>
</filter>
<filter id="elev3" x="-30%" y="-30%" width="160%" height="180%">
<feDropShadow dx="0" dy="3" stdDeviation="5" flood-color="#000000" flood-opacity="0.20"/>
</filter>
</defs><rect x="0" y="28" width="360" height="64" rx="0" fill="#FFF8F3"/><line x1="0" y1="92" x2="360" y2="92" stroke="#D6C7AF" stroke-width="1"/><g transform="translate(17.0,49.0) scale(0.9166666666666666)" stroke="#201A12" stroke-width="2" fill="none" stroke-linecap="round" stroke-linejoin="round"><path d="M14.5 5 L8 12 L14.5 19"/></g><text x="52" y="66.0" font-family="Roboto Medium, Roboto, sans-serif" font-size="19" font-weight="500" fill="#201A12" text-anchor="start">Recharge</text><g transform="translate(321.0,49.0) scale(0.9166666666666666)" stroke="#524533" stroke-width="2" fill="none" stroke-linecap="round" stroke-linejoin="round"><path d="M6 10 a6 6 0 0 1 12 0 v4 l1.6 3 H4.4 L6 14 z"/><path d="M10.3 20 a1.9 1.9 0 0 0 3.4 0"/></g><text x="16" y="112" font-family="Roboto, 'Segoe UI', sans-serif" font-size="12" font-weight="400" fill="#524533" text-anchor="start">Current balance: 240 credits</text><rect x="16" y="134" width="328" height="46" rx="14" fill="#FFF3DA"/><circle cx="40" cy="157" r="13" fill="#FFE4A6"/><g transform="translate(32.85,149.85) scale(0.5958333333333333)" stroke="#4A3300" stroke-width="2" fill="none" stroke-linecap="round" stroke-linejoin="round"><rect x="3.5" y="5" width="17" height="15" rx="2"/><path d="M3.5 9.5 H20.5"/><path d="M8 3 V6.5"/><path d="M16 3 V6.5"/><circle cx="8.2" cy="13.2" r="0.9" fill="#4A3300" stroke="none"/><circle cx="12" cy="13.2" r="0.9" fill="#4A3300" stroke="none"/><circle cx="15.8" cy="13.2" r="0.9" fill="#4A3300" stroke="none"/></g><text x="60" y="161" font-family="Roboto, 'Segoe UI', sans-serif" font-size="10.5" font-weight="400" fill="#4A3300" text-anchor="start">Need 60 more credits for this test</text><rect x="16" y="196" width="328" height="58" rx="16" fill="#FFDDB0" stroke="#8C5A15" stroke-width="1.8" filter="url(#elev1)"/><text x="36" y="232" font-family="Roboto, 'Segoe UI', sans-serif" font-size="13.5" font-weight="700" fill="#2B1700" text-anchor="start">₹199  —  200 credits</text><circle cx="318" cy="225" r="10" fill="#8C5A15"/><text x="318" y="229" font-family="Roboto, 'Segoe UI', sans-serif" font-size="11" font-weight="700" fill="#FFFFFF" text-anchor="middle">✓</text><rect x="228.0" y="186" width="76.0" height="20" rx="10" fill="#FFE4A6"/><text x="266.0" y="200" font-family="Roboto, 'Segoe UI', sans-serif" font-size="8.5" font-weight="700" fill="#4A3300" text-anchor="middle">Best value</text><rect x="16" y="266" width="328" height="58" rx="16" fill="none" stroke="#D6C7AF" stroke-width="1.2"/><text x="36" y="302" font-family="Roboto, 'Segoe UI', sans-serif" font-size="13" font-weight="500" fill="#201A12" text-anchor="start">₹499  —  550 credits</text><circle cx="318" cy="295" r="10" fill="none" stroke="#847460" stroke-width="1.3"/><rect x="16" y="336" width="328" height="58" rx="16" fill="none" stroke="#D6C7AF" stroke-width="1.2"/><text x="36" y="372" font-family="Roboto, 'Segoe UI', sans-serif" font-size="13" font-weight="500" fill="#201A12" text-anchor="start">₹999  —  1150 credits</text><circle cx="318" cy="365" r="10" fill="none" stroke="#847460" stroke-width="1.3"/><rect x="216.8" y="326" width="87.19999999999999" height="20" rx="10" fill="#FFE4A6"/><text x="260.4" y="340" font-family="Roboto, 'Segoe UI', sans-serif" font-size="8.5" font-weight="700" fill="#4A3300" text-anchor="middle">Most popular</text><rect x="16" y="412" width="328" height="52" rx="26.0" fill="#FFDDB0"/><text x="180.0" y="443.4" font-family="Roboto Medium, Roboto, sans-serif" font-size="15" font-weight="500" fill="#2B1700" text-anchor="middle">Pay ₹199</text><text x="16" y="19" font-family="Roboto Medium, Roboto, sans-serif" font-size="12" font-weight="500" fill="#201A12" text-anchor="start">9:41</text><rect x="322" y="10" width="3" height="8" rx="1" fill="#201A12"/><rect x="327" y="7" width="3" height="11" rx="1" fill="#201A12"/><rect x="332" y="4" width="3" height="14" rx="1" fill="#201A12"/><rect x="338" y="8" width="16" height="9" rx="2" fill="none" stroke="#201A12" stroke-width="1.3"/><rect x="340" y="10" width="11" height="5" rx="1" fill="#201A12"/></svg>