<svg width="360" height="798" viewBox="0 0 360 798" xmlns="http://www.w3.org/2000/svg"><rect x="0" y="0" width="360" height="798" rx="0" fill="#FFF8F3"/><defs>
<linearGradient id="heroGrad" x1="0%" y1="0%" x2="100%" y2="100%">
<stop offset="0%" stop-color="#FFC876"/>
<stop offset="100%" stop-color="#F0A337"/>
</linearGradient>
<linearGradient id="heroGradCool" x1="0%" y1="0%" x2="100%" y2="100%">
<stop offset="0%" stop-color="#C9DCC3"/>
<stop offset="100%" stop-color="#8FB584"/>
</linearGradient>
<filter id="softBlur"><feGaussianBlur stdDeviation="14"/></filter>
</defs><defs>
<filter id="elev1" x="-20%" y="-20%" width="140%" height="160%">
<feDropShadow dx="0" dy="1" stdDeviation="2" flood-color="#000000" flood-opacity="0.16"/>
</filter>
<filter id="elev3" x="-30%" y="-30%" width="160%" height="180%">
<feDropShadow dx="0" dy="3" stdDeviation="5" flood-color="#000000" flood-opacity="0.20"/>
</filter>
</defs><rect x="0" y="28" width="360" height="64" rx="0" fill="#FFF8F3"/><line x1="0" y1="92" x2="360" y2="92" stroke="#D6C7AF" stroke-width="1"/><g transform="translate(17.0,49.0) scale(0.9166666666666666)" stroke="#201A12" stroke-width="2" fill="none" stroke-linecap="round" stroke-linejoin="round"><path d="M14.5 5 L8 12 L14.5 19"/></g><text x="52" y="66.0" font-family="Roboto Medium, Roboto, sans-serif" font-size="19" font-weight="500" fill="#201A12" text-anchor="start">Test Result</text><g transform="translate(321.0,49.0) scale(0.9166666666666666)" stroke="#524533" stroke-width="2" fill="none" stroke-linecap="round" stroke-linejoin="round"><path d="M6 10 a6 6 0 0 1 12 0 v4 l1.6 3 H4.4 L6 14 z"/><path d="M10.3 20 a1.9 1.9 0 0 0 3.4 0"/></g><clipPath id="clip16110328"><rect x="16" y="110" width="328" height="130" rx="24"/></clipPath><rect x="16" y="110" width="328" height="130" rx="24" fill="url(#heroGrad)" filter="url(#elev3)"/><g clip-path="url(#clip16110328)"><path d="M 371.7 128.0 Q 371.7 128.0 359.7 144.8 Q 347.7 161.7 330.8 172.0 Q 314.0 182.3 292.4 176.7 Q 270.8 171.2 266.9 149.6 Q 263.0 128.0 268.1 107.6 Q 273.2 87.2 293.6 83.8 Q 314.0 80.4 333.2 85.0 Q 352.4 89.6 362.0 108.8 Z" fill="#FFFFFF" opacity="0.14"/><path d="M 296.2 232.0 Q 296.2 232.0 292.4 247.3 Q 288.6 262.6 273.3 265.1 Q 258.0 267.7 243.6 264.3 Q 229.2 260.8 220.7 246.4 Q 212.2 232.0 221.6 218.5 Q 231.0 205.0 244.5 196.9 Q 258.0 188.7 270.6 197.7 Q 283.2 206.8 289.7 219.4 Z" fill="#FFFFFF" opacity="0.1"/><path d="M 75.4 246.0 Q 75.4 246.0 66.9 258.2 Q 58.5 270.5 46.2 277.8 Q 34.0 285.1 22.6 277.0 Q 11.2 268.8 4.2 257.4 Q -2.9 246.0 0.9 231.4 Q 4.7 216.7 19.4 214.1 Q 34.0 211.4 47.8 214.9 Q 61.7 218.3 68.5 232.2 Z" fill="#7A4A0E" opacity="0.08"/></g><text x="36" y="138" font-family="Roboto Medium, Roboto, sans-serif" font-size="13" font-weight="700" fill="#3A2205" text-anchor="start">SSC CGL mock test 4</text><text x="36" y="156" font-family="Roboto, 'Segoe UI', sans-serif" font-size="10" font-weight="400" fill="#5C3A0E" text-anchor="start">Completed 24 Jul 2026</text><circle cx="70" cy="202" r="38" fill="none" stroke="rgba(255,255,255,0.4)" stroke-width="7"/><circle cx="70" cy="202" r="38" fill="none" stroke="#3A2205" stroke-width="7" stroke-linecap="round" stroke-dasharray="238.8" stroke-dashoffset="90.7" transform="rotate(-90 70 202)"/><text x="70" y="207" font-family="Roboto Medium, Roboto, sans-serif" font-size="15" font-weight="700" fill="#3A2205" text-anchor="middle">62</text><text x="70" y="221" font-family="Roboto, 'Segoe UI', sans-serif" font-size="8" font-weight="400" fill="#3A2205" text-anchor="middle">/ 100</text><text x="124" y="198" font-family="Roboto, 'Segoe UI', sans-serif" font-size="12" font-weight="600" fill="#3A2205" text-anchor="start">Accuracy 64%</text><text x="124" y="216" font-family="Roboto, 'Segoe UI', sans-serif" font-size="10" font-weight="400" fill="#5C3A0E" text-anchor="start">Faster than 71% of students</text><rect x="16" y="260" width="159.0" height="74" rx="16" fill="#F3E9DC"/><text x="30" y="284" font-family="Roboto, 'Segoe UI', sans-serif" font-size="11" font-weight="400" fill="#524533" text-anchor="start">Rank</text><text x="30" y="308" font-family="Roboto Medium, Roboto, sans-serif" font-size="18" font-weight="500" fill="#201A12" text-anchor="start">#312</text><rect x="185.0" y="260" width="159.0" height="74" rx="16" fill="#F3E9DC"/><text x="199.0" y="284" font-family="Roboto, 'Segoe UI', sans-serif" font-size="11" font-weight="400" fill="#524533" text-anchor="start">Time taken</text><text x="199.0" y="308" font-family="Roboto Medium, Roboto, sans-serif" font-size="18" font-weight="500" fill="#201A12" text-anchor="start">42 min</text><rect x="16" y="344" width="328" height="74" rx="16" fill="#FFFFFF" filter="url(#elev1)"/><circle cx="50" cy="381" r="18" fill="#B8F1C4"/><g transform="translate(40.1,371.1) scale(0.8250000000000001)" stroke="#0A3818" stroke-width="2" fill="none" stroke-linecap="round" stroke-linejoin="round"><rect x="4.5" y="3" width="15" height="18" rx="2"/><path d="M8 8 H16"/><path d="M8 12 L10.5 14.5 L16 9"/></g><text x="78" y="374" font-family="Roboto, 'Segoe UI', sans-serif" font-size="10" font-weight="400" fill="#524533" text-anchor="start">Correct · Wrong · Skipped</text><text x="78" y="394" font-family="Roboto Medium, Roboto, sans-serif" font-size="13" font-weight="700" fill="#201A12" text-anchor="start">32  ·  18  ·  0</text><rect x="16" y="434" width="328" height="108" rx="16" fill="#FFFFFF" filter="url(#elev1)"/><text x="32" y="460" font-family="Roboto Medium, Roboto, sans-serif" font-size="12.5" font-weight="600" fill="#201A12" text-anchor="start">Subject breakdown</text><text x="32" y="480" font-family="Roboto, 'Segoe UI', sans-serif" font-size="10.5" font-weight="400" fill="#524533" text-anchor="start">Quant</text><text x="328" y="480" font-family="Roboto, 'Segoe UI', sans-serif" font-size="10.5" font-weight="600" fill="#201A12" text-anchor="end">70%</text><rect x="32" y="486" width="296" height="6" rx="3.0" fill="#F3E9DC"/><rect x="32" y="486" width="207.2" height="6" rx="3.0" fill="#2E6E45"/><text x="32" y="512" font-family="Roboto, 'Segoe UI', sans-serif" font-size="10.5" font-weight="400" fill="#524533" text-anchor="start">English</text><text x="328" y="512" font-family="Roboto, 'Segoe UI', sans-serif" font-size="10.5" font-weight="600" fill="#201A12" text-anchor="end">48%</text><rect x="32" y="518" width="296" height="6" rx="3.0" fill="#F3E9DC"/><rect x="32" y="518" width="142.08" height="6" rx="3.0" fill="#E8A23A"/><rect x="16" y="556" width="328" height="60" rx="16" fill="#EDE1D2"/><text x="32" y="580" font-family="Roboto, 'Segoe UI', sans-serif" font-size="11.5" font-weight="600" fill="#0A3818" text-anchor="start">Strongest: Quant</text><text x="32" y="600" font-family="Roboto, 'Segoe UI', sans-serif" font-size="11.5" font-weight="600" fill="#410002" text-anchor="start">Weakest: English</text><text x="16" y="648" font-family="Roboto Medium, Roboto, sans-serif" font-size="13.5" font-weight="600" fill="#201A12" text-anchor="start">Question-wise analysis</text><rect x="16" y="666" width="328" height="50" rx="14" fill="none" stroke="#D6C7AF" stroke-width="1"/><text x="30" y="697" font-family="Roboto, 'Segoe UI', sans-serif" font-size="11.5" font-weight="400" fill="#201A12" text-anchor="start">1. Speed and distance</text><rect x="272.5" y="677" width="61.5" height="26" rx="13" fill="#B8F1C4"/><text x="303.25" y="694" font-family="Roboto, 'Segoe UI', sans-serif" font-size="10.5" font-weight="600" fill="#0A3818" text-anchor="middle">Correct</text><rect x="16" y="724" width="328" height="50" rx="14" fill="none" stroke="#D6C7AF" stroke-width="1"/><text x="30" y="755" font-family="Roboto, 'Segoe UI', sans-serif" font-size="11.5" font-weight="400" fill="#201A12" text-anchor="start">2. Percentages</text><rect x="285.5" y="735" width="48.5" height="26" rx="13" fill="#FFDAD6"/><text x="309.75" y="752" font-family="Roboto, 'Segoe UI', sans-serif" font-size="10.5" font-weight="600" fill="#410002" text-anchor="middle">Wrong</text><text x="16" y="19" font-family="Roboto Medium, Roboto, sans-serif" font-size="12" font-weight="500" fill="#201A12" text-anchor="start">9:41</text><rect x="322" y="10" width="3" height="8" rx="1" fill="#201A12"/><rect x="327" y="7" width="3" height="11" rx="1" fill="#201A12"/><rect x="332" y="4" width="3" height="14" rx="1" fill="#201A12"/><rect x="338" y="8" width="16" height="9" rx="2" fill="none" stroke="#201A12" stroke-width="1.3"/><rect x="340" y="10" width="11" height="5" rx="1" fill="#201A12"/></svg>