<svg width="1280" height="900" viewBox="0 0 1280 900" xmlns="http://www.w3.org/2000/svg"><rect x="0" y="0" width="1280" height="900" fill="#0F1420"/><rect x="190.0" y="140.0" width="900" height="620" rx="14" fill="none" stroke="#2A3350" stroke-width="1"/><rect x="190.0" y="140.0" width="396.0" height="620" rx="14" fill="#141B30"/><rect x="388.0" y="140.0" width="198.0" height="620" rx="0" fill="#141B30"/><circle cx="238.0" cy="186.0" r="8" fill="#B8863C" stroke="#D4A24C" stroke-width="1.5"/><text x="256.0" y="191.0" font-family="Space Grotesk" font-size="16" font-weight="700" fill="#FFFFFF" text-anchor="start">Gyanahut Edu</text><text x="230.0" y="240.0" font-family="Space Grotesk" font-size="20" font-weight="600" fill="#FFFFFF" text-anchor="start">Master your exams</text><text x="230.0" y="268.0" font-family="IBM Plex Sans" font-size="12.5" font-weight="400" fill="rgba(255,255,255,0.6)" text-anchor="start">Create your account and get your first</text><text x="230.0" y="286.0" font-family="IBM Plex Sans" font-size="12.5" font-weight="400" fill="rgba(255,255,255,0.6)" text-anchor="start">practice set in under two minutes.</text><line x1="230.0" y1="308.0" x2="546.0" y2="308.0" stroke="rgba(255,255,255,0.15)" stroke-width="1"/><circle cx="241.0" cy="330.0" r="11" fill="none" stroke="#D4A24C" stroke-width="1.6"/><text x="262.0" y="334.0" font-family="IBM Plex Sans" font-size="12.5" font-weight="400" fill="#FFFFFF" text-anchor="start">Live tests with real-time ranking</text><line x1="230.0" y1="350.0" x2="546.0" y2="350.0" stroke="rgba(255,255,255,0.15)" stroke-width="1"/><circle cx="241.0" cy="372.0" r="11" fill="none" stroke="#D4A24C" stroke-width="1.6"/><text x="262.0" y="376.0" font-family="IBM Plex Sans" font-size="12.5" font-weight="400" fill="#FFFFFF" text-anchor="start">10,000+ question bank</text><line x1="230.0" y1="392.0" x2="546.0" y2="392.0" stroke="rgba(255,255,255,0.15)" stroke-width="1"/><circle cx="241.0" cy="414.0" r="11" fill="none" stroke="#D4A24C" stroke-width="1.6"/><text x="262.0" y="418.0" font-family="IBM Plex Sans" font-size="12.5" font-weight="400" fill="#FFFFFF" text-anchor="start">Performance analytics after every attempt</text><rect x="230.0" y="710.0" width="104.66" height="22" rx="5" fill="rgba(184,134,60,0.22)"/><text x="282.33" y="725.0" font-family="IBM Plex Mono" font-size="11" font-weight="500" fill="#E8CB98" text-anchor="middle">NTA compliant</text><rect x="344.65999999999997" y="710.0" width="138.76" height="22" rx="5" fill="rgba(184,134,60,0.22)"/><text x="414.03999999999996" y="725.0" font-family="IBM Plex Mono" font-size="11" font-weight="500" fill="#E8CB98" text-anchor="middle">Secure environment</text><rect x="630.0" y="186.0" width="90" height="24" rx="14" fill="none" stroke="#2A3350" stroke-width="1"/><text x="675.0" y="202.0" font-family="IBM Plex Mono" font-size="11" font-weight="400" fill="#8892AC" text-anchor="middle">1. Details</text><rect x="730.0" y="186.0" width="76" height="24" rx="14" fill="#141B30"/><text x="768.0" y="202.0" font-family="IBM Plex Mono" font-size="11" font-weight="500" fill="#FFFFFF" text-anchor="middle">2. OTP</text><text x="630.0" y="232.0" font-family="Space Grotesk" font-size="20" font-weight="600" fill="#EDEAE0" text-anchor="start">Verify your number</text><text x="630.0" y="254.0" font-family="IBM Plex Sans" font-size="12.5" font-weight="400" fill="#8892AC" text-anchor="start">We've sent a 6-digit code to 98xxxxxxxx.</text><rect x="630.0" y="280.0" width="416.0" height="32" rx="6" fill="rgba(47,111,78,0.22)"/><text x="642.0" y="300.0" font-family="IBM Plex Mono" font-size="11" font-weight="400" fill="#6FCF9E" text-anchor="start">Dev mode — no SMS gateway configured. Your code is 482913.</text><rect x="630.0" y="328.0" width="61.0" height="46" rx="6" fill="#1B2340" stroke="#2A3350" stroke-width="1"/><text x="660.5" y="358.0" font-family="IBM Plex Mono" font-size="18" font-weight="500" fill="#EDEAE0" text-anchor="middle">4</text><rect x="701.0" y="328.0" width="61.0" height="46" rx="6" fill="#1B2340" stroke="#2A3350" stroke-width="1"/><text x="731.5" y="358.0" font-family="IBM Plex Mono" font-size="18" font-weight="500" fill="#EDEAE0" text-anchor="middle">8</text><rect x="772.0" y="328.0" width="61.0" height="46" rx="6" fill="#1B2340" stroke="#2A3350" stroke-width="1"/><text x="802.5" y="358.0" font-family="IBM Plex Mono" font-size="18" font-weight="500" fill="#EDEAE0" text-anchor="middle">2</text><rect x="843.0" y="328.0" width="61.0" height="46" rx="6" fill="#1B2340" stroke="#2A3350" stroke-width="1"/><text x="873.5" y="358.0" font-family="IBM Plex Mono" font-size="18" font-weight="500" fill="#EDEAE0" text-anchor="middle">9</text><rect x="914.0" y="328.0" width="61.0" height="46" rx="6" fill="#1B2340" stroke="#2A3350" stroke-width="1"/><text x="944.5" y="358.0" font-family="IBM Plex Mono" font-size="18" font-weight="500" fill="#EDEAE0" text-anchor="middle">1</text><rect x="985.0" y="328.0" width="61.0" height="46" rx="6" fill="#1B2340" stroke="#2A3350" stroke-width="1"/><text x="1015.5" y="358.0" font-family="IBM Plex Mono" font-size="18" font-weight="500" fill="#EDEAE0" text-anchor="middle">3</text><rect x="630.0" y="390.0" width="416.0" height="44" rx="6" fill="#B8863C"/><text x="838.0" y="416.9" font-family="IBM Plex Sans" font-size="14" font-weight="600" fill="#241a08" text-anchor="middle">Verify &amp; create account</text><text x="838.0" y="450.0" font-family="IBM Plex Sans" font-size="12.5" font-weight="500" fill="#E8CB98" text-anchor="middle">Change mobile number</text></svg>